<svg xmlns="http://www.w3.org/2000/svg" viewBox="0 0 24 24"><path fill="white" d="M2 8c0-2 1-3 2-4l2 3h12l2-3c1 1 2 2 2 4v1c0 1-.5 2-1.5 2H19c0 5-3 8-7 8s-7-3-7-8h-.5C3.5 11 3 10 3 9V8z"/><circle fill="none" stroke="#DC2626" stroke-width="1.2" cx="9" cy="10.5" r="2"/><circle fill="none" stroke="#DC2626" stroke-width="1.2" cx="15" cy="10.5" r="2"/><line x1="11" y1="10.5" x2="13" y2="10.5" stroke="#DC2626" stroke-width="1"/><circle fill="#333" cx="9" cy="10.5" r=".9"/><circle fill="#333" cx="15" cy="10.5" r=".9"/><ellipse fill="none" stroke="white" stroke-width=".6" cx="12" cy="16" rx="2" ry="1.5"/><circle fill="white" cx="11.2" cy="16" r=".4"/><circle fill="white" cx="12.8" cy="16" r=".4"/></svg>