<svg xmlns="http://www.w3.org/2000/svg" viewBox="0 0 24 24"><path fill="white" d="M1 5c1-2 3-3 4-3l1 4h12l1-4c1 0 3 1 4 3v3c-1 1-2 1-3 1 0 5-3 9-8 9s-8-4-8-9c-1 0-2 0-3-1V5z"/><rect fill="#DC2626" x="7" y="9" width="3.5" height="2.5" rx=".5"/><rect fill="#DC2626" x="13.5" y="9" width="3.5" height="2.5" rx=".5"/><line x1="10.5" y1="10.2" x2="13.5" y2="10.2" stroke="#DC2626" stroke-width=".7"/><circle fill="#222" cx="8.8" cy="10.2" r=".7"/><circle fill="#222" cx="15.2" cy="10.2" r=".7"/><circle fill="white" cx="10.5" cy="15.5" r=".5"/><circle fill="white" cx="13.5" cy="15.5" r=".5"/></svg>