<svg xmlns="http://www.w3.org/2000/svg" viewBox="0 0 24 24"><path fill="white" d="M4 6l2-4 2 4h8l2-4 2 4v4l-2 1-1 6c0 2-2 4-5 4h-1c-3 0-5-2-5-4l-1-6-2-1V6z"/><rect fill="none" stroke="#DC2626" stroke-width="1.3" x="6.5" y="8.5" width="4" height="3" rx="1"/><rect fill="none" stroke="#DC2626" stroke-width="1.3" x="13.5" y="8.5" width="4" height="3" rx="1"/><line x1="10.5" y1="10" x2="13.5" y2="10" stroke="#DC2626" stroke-width="1.2"/><circle fill="#333" cx="8.5" cy="10" r="1"/><circle fill="#333" cx="15.5" cy="10" r="1"/><path fill="none" stroke="white" stroke-width=".7" d="M10 16a2 1.5 0 014 0"/><circle fill="white" cx="11" cy="16.5" r=".4"/><circle fill="white" cx="13" cy="16.5" r=".4"/></svg>