<svg xmlns="http://www.w3.org/2000/svg" viewBox="0 0 24 24"><path fill="white" d="M3 7l3-4 1 3h10l1-3 3 4v3l-2 1v5c0 3-2.5 5-5 5h-4c-2.5 0-5-2-5-5v-5l-2-1V7z"/><rect fill="#DC2626" x="7" y="9" width="4" height="2.5" rx=".7"/><rect fill="#DC2626" x="13" y="9" width="4" height="2.5" rx=".7"/><line x1="11" y1="10" x2="13" y2="10" stroke="#DC2626" stroke-width=".8"/><circle fill="#333" cx="9" cy="10" r=".8"/><circle fill="#333" cx="15" cy="10" r=".8"/><ellipse fill="#DC2626" cx="12" cy="16" rx="2.5" ry="2"/><circle fill="white" cx="11" cy="16.2" r=".5"/><circle fill="white" cx="13" cy="16.2" r=".5"/></svg>