<svg xmlns="http://www.w3.org/2000/svg" viewBox="0 0 24 24"><path fill="white" d="M3 7c0-3 2-5 3-5l1 4h10l1-4c1 0 3 2 3 5v2l-2 1c0 5-3 9-7 9s-7-4-7-9l-2-1V7z"/><rect fill="#DC2626" x="6" y="9" width="5" height="3" rx="1.2"/><rect fill="#DC2626" x="13" y="9" width="5" height="3" rx="1.2"/><path d="M11 10.5h2" stroke="#DC2626" stroke-width="1" fill="none"/><circle fill="white" cx="8.5" cy="10.5" r="1.2"/><circle fill="#333" cx="8.5" cy="10.5" r=".6"/><circle fill="white" cx="15.5" cy="10.5" r="1.2"/><circle fill="#333" cx="15.5" cy="10.5" r=".6"/><ellipse cx="12" cy="17" rx="2.5" ry="1.8" fill="none" stroke="white" stroke-width=".6"/><circle fill="white" cx="11" cy="17" r=".4"/><circle fill="white" cx="13" cy="17" r=".4"/></svg>